HIERARCHY
ROOT pelvis
{
  OFFSET 0 100 0
  CHANNELS 6 Xposition Yposition Zposition Zrotation Xrotation Yrotation
  JOINT pelvis_right_femur
  {
    OFFSET -10.78128 -3.44521 -0.5502486
    CHANNELS 3 Zrotation Xrotation Yrotation
    JOINT right_femur_tibia
    {
      OFFSET -0.8047443 -44.0398 -0.1307829
      CHANNELS 3 Zrotation Xrotation Yrotation
      JOINT right_tibia_foot
      {
        OFFSET 3.006224 -47.83518 -5
        CHANNELS 3 Zrotation Xrotation Yrotation
        End Site
        {
          OFFSET 0 -5 15
        }
      }
    }
  }
  JOINT pelvis_left_femur
  {
    OFFSET 10.78128 -3.44521 -0.5502486
    CHANNELS 3 Zrotation Xrotation Yrotation
    JOINT left_femur_tibia
    {
      OFFSET 0.8047443 -44.0398 -0.1307829
      CHANNELS 3 Zrotation Xrotation Yrotation
      JOINT left_tibia_foot
      {
        OFFSET -4.370144 -48.10324 -4.275266
        CHANNELS 3 Zrotation Xrotation Yrotation
        End Site
        {
          OFFSET 0 -5 15
        }
      }
    }
  }
  JOINT pelvis_spine1
  {
    OFFSET 0 6.468898 -3.129235
    CHANNELS 3 Zrotation Xrotation Yrotation
    JOINT spine1
    {
      OFFSET 0 23.15396 4.99043
      CHANNELS 3 Zrotation Xrotation Yrotation
      JOINT spine2
      {
        OFFSET 0 20.79997 -5.064912
        CHANNELS 3 Zrotation Xrotation Yrotation
        JOINT neck
        {
          OFFSET 0 14.38658 9.616178
          CHANNELS 3 Zrotation Xrotation Yrotation
          End Site
          {
            OFFSET 0 20 0
          }
        }
      }
      JOINT right_manubrium
      {
        OFFSET -5.722621 16.35077 3.967754
        CHANNELS 3 Zrotation Xrotation Yrotation
        JOINT right_clavicle
        {
          OFFSET -13.16364 1.694482 -4.693211
          CHANNELS 3 Zrotation Xrotation Yrotation
          JOINT right_humerus
          {
            OFFSET -28.5034 -0.3100689 -2.792744
            CHANNELS 3 Zrotation Xrotation Yrotation
            JOINT right_radius
            {
              OFFSET -25.15693 0.02248979 -1.271978
              CHANNELS 3 Zrotation Xrotation Yrotation
              End Site
              {
                OFFSET -15 0 0
              }
            }
          }
        }
      }
      JOINT left_manubrium
      {
        OFFSET 5.722621 16.35077 3.967754
        CHANNELS 3 Zrotation Xrotation Yrotation
        JOINT left_clavicle
        {
          OFFSET 13.16364 1.694482 -4.693211
          CHANNELS 3 Zrotation Xrotation Yrotation
          JOINT left_humerus
          {
            OFFSET 29.39168 -1.063119 -2.237045
            CHANNELS 3 Zrotation Xrotation Yrotation
            JOINT left_radius
            {
              OFFSET 24.59957 -0.9528479 0.9047498
              CHANNELS 3 Zrotation Xrotation Yrotation
              End Site
              {
                OFFSET 15 -0 -0
              }
            }
          }
        }
      }
    }
  }
}
MOTION
Frames: 19
Frame Time: 0.0416666666667
-1530.234 98.08409 711.0986 -3.376585 7.049429 -164.2937 3.759566 3.354754 2.459126 -0 28.44816 -0 -7.38128 -0.9152788 1.338537 -1.499487 -10.91455 -5.914247 -0 18.28134 -0 16.20697 0.9171789 17.75547 -1.327547 -4.97189 8.558508 1.302301 19.24989 -7.503711 -0.3991533 18.33195 4.433895 2.292889 -19.92724 4.102943 2.028387 -30.15148 16.01025 88.59606 24.02141 -14.02613 -0 0 25.36476 -25.98701 16.16629 14.46625 2.157199 -24.9868 -9.357615 -87.82518 -3.54496 31.39265 0 0 -14.11592 20.74148 7.8063 -13.49533
-1532.693 98.09497 706.8059 -3.334415 7.069394 -164.6368 3.759566 3.354754 2.459126 -0 28.44816 -0 -7.38128 -0.9152788 1.338537 -1.499487 -10.91455 -5.914247 -0 18.28134 -0 16.20697 0.9171789 17.75547 -1.327547 -4.97189 8.558508 1.302301 19.24989 -7.503711 -0.3991533 18.33195 4.433895 2.292889 -19.92724 4.102943 2.028387 -30.15148 16.01025 88.59606 24.02141 -14.02613 -0 0 25.36476 -25.98701 16.16629 14.46625 2.157199 -24.9868 -9.357615 -87.82518 -3.54496 31.39265 0 0 -14.11592 20.74148 7.8063 -13.49533
-1535.128 98.10585 702.4986 -3.292124 7.089108 -164.98 3.759566 3.354754 2.459126 -0 28.44816 -0 -7.38128 -0.9152788 1.338537 -1.499487 -10.91455 -5.914247 -0 18.28134 -0 16.20697 0.9171789 17.75547 -1.327547 -4.97189 8.558508 1.302301 19.24989 -7.503711 -0.3991533 18.33195 4.433895 2.292889 -19.92724 4.102943 2.028387 -30.15148 16.01025 88.59606 24.02141 -14.02613 -0 0 25.36476 -25.98701 16.16629 14.46625 2.157199 -24.9868 -9.357615 -87.82518 -3.54496 31.39265 0 0 -14.11592 20.74148 7.8063 -13.49533
-1537.536 98.11672 698.177 -3.249713 7.108571 -165.3232 3.759566 3.354754 2.459126 -0 28.44816 -0 -7.38128 -0.9152788 1.338537 -1.499487 -10.91455 -5.914247 -0 18.28134 -0 16.20697 0.9171789 17.75547 -1.327547 -4.97189 8.558508 1.302301 19.24989 -7.503711 -0.3991533 18.33195 4.433895 2.292889 -19.92724 4.102943 2.028387 -30.15148 16.01025 88.59606 24.02141 -14.02613 -0 0 25.36476 -25.98701 16.16629 14.46625 2.157199 -24.9868 -9.357615 -87.82518 -3.54496 31.39265 0 0 -14.11592 20.74148 7.8063 -13.49533
-1539.919 98.1276 693.841 -3.207183 7.127782 -165.6664 3.759566 3.354754 2.459126 -0 28.44816 -0 -7.38128 -0.9152788 1.338537 -1.499487 -10.91455 -5.914247 -0 18.28134 -0 16.20697 0.9171789 17.75547 -1.327547 -4.97189 8.558508 1.302301 19.24989 -7.503711 -0.3991533 18.33195 4.433895 2.292889 -19.92724 4.102943 2.028387 -30.15148 16.01025 88.59606 24.02141 -14.02613 -0 0 25.36476 -25.98701 16.16629 14.46625 2.157199 -24.9868 -9.357615 -87.82518 -3.54496 31.39265 0 0 -14.11592 20.74148 7.8063 -13.49533
-1542.275 98.13848 689.4909 -3.164537 7.146739 -166.0096 3.759566 3.354754 2.459126 -0 28.44816 -0 -7.38128 -0.9152788 1.338537 -1.499487 -10.91455 -5.914247 -0 18.28134 -0 16.20697 0.9171789 17.75547 -1.327547 -4.97189 8.558508 1.302301 19.24989 -7.503711 -0.3991533 18.33195 4.433895 2.292889 -19.92724 4.102943 2.028387 -30.15148 16.01025 88.59606 24.02141 -14.02613 -0 0 25.36476 -25.98701 16.16629 14.46625 2.157199 -24.9868 -9.357615 -87.82518 -3.54496 31.39265 0 0 -14.11592 20.74148 7.8063 -13.49533
-1544.606 98.14935 685.1269 -3.121775 7.165442 -166.3529 3.759566 3.354754 2.459126 -0 28.44816 -0 -7.38128 -0.9152788 1.338537 -1.499487 -10.91455 -5.914247 -0 18.28134 -0 16.20697 0.9171789 17.75547 -1.327547 -4.97189 8.558508 1.302301 19.24989 -7.503711 -0.3991533 18.33195 4.433895 2.292889 -19.92724 4.102943 2.028387 -30.15148 16.01025 88.59606 24.02141 -14.02613 -0 0 25.36476 -25.98701 16.16629 14.46625 2.157199 -24.9868 -9.357615 -87.82518 -3.54496 31.39265 0 0 -14.11592 20.74148 7.8063 -13.49533
-1546.911 98.16023 680.7491 -3.078899 7.183891 -166.6962 3.759566 3.354754 2.459126 -0 28.44816 -0 -7.38128 -0.9152788 1.338537 -1.499487 -10.91455 -5.914247 -0 18.28134 -0 16.20697 0.9171789 17.75547 -1.327547 -4.97189 8.558508 1.302301 19.24989 -7.503711 -0.3991533 18.33195 4.433895 2.292889 -19.92724 4.102943 2.028387 -30.15148 16.01025 88.59606 24.02141 -14.02613 -0 0 25.36476 -25.98701 16.16629 14.46625 2.157199 -24.9868 -9.357615 -87.82518 -3.54496 31.39265 0 0 -14.11592 20.74148 7.8063 -13.49533
-1549.19 98.1711 676.3576 -3.03591 7.202084 -167.0395 3.759566 3.354754 2.459126 -0 28.44816 -0 -7.38128 -0.9152788 1.338537 -1.499487 -10.91455 -5.914247 -0 18.28134 -0 16.20697 0.9171789 17.75547 -1.327547 -4.97189 8.558508 1.302301 19.24989 -7.503711 -0.3991533 18.33195 4.433895 2.292889 -19.92724 4.102943 2.028387 -30.15148 16.01025 88.59606 24.02141 -14.02613 -0 0 25.36476 -25.98701 16.16629 14.46625 2.157199 -24.9868 -9.357615 -87.82518 -3.54496 31.39265 0 0 -14.11592 20.74148 7.8063 -13.49533
-1551.442 98.18198 671.9527 -2.992811 7.220022 -167.3829 3.759566 3.354754 2.459126 -0 28.44816 -0 -7.38128 -0.9152788 1.338537 -1.499487 -10.91455 -5.914247 -0 18.28134 -0 16.20697 0.9171789 17.75547 -1.327547 -4.97189 8.558508 1.302301 19.24989 -7.503711 -0.3991533 18.33195 4.433895 2.292889 -19.92724 4.102943 2.028387 -30.15148 16.01025 88.59606 24.02141 -14.02613 -0 0 25.36476 -25.98701 16.16629 14.46625 2.157199 -24.9868 -9.357615 -87.82518 -3.54496 31.39265 0 0 -14.11592 20.74148 7.8063 -13.49533
-1553.668 98.19286 667.5344 -2.949603 7.237703 -167.7262 3.759566 3.354754 2.459126 -0 28.44816 -0 -7.38128 -0.9152788 1.338537 -1.499487 -10.91455 -5.914247 -0 18.28134 -0 16.20697 0.9171789 17.75547 -1.327547 -4.97189 8.558508 1.302301 19.24989 -7.503711 -0.3991533 18.33195 4.433895 2.292889 -19.92724 4.102943 2.028387 -30.15148 16.01025 88.59606 24.02141 -14.02613 -0 0 25.36476 -25.98701 16.16629 14.46625 2.157199 -24.9868 -9.357615 -87.82518 -3.54496 31.39265 0 0 -14.11592 20.74148 7.8063 -13.49533
-1555.868 98.20373 663.103 -2.906287 7.255127 -168.0696 3.759566 3.354754 2.459126 -0 28.44816 -0 -7.38128 -0.9152788 1.338537 -1.499487 -10.91455 -5.914247 -0 18.28134 -0 16.20697 0.9171789 17.75547 -1.327547 -4.97189 8.558508 1.302301 19.24989 -7.503711 -0.3991533 18.33195 4.433895 2.292889 -19.92724 4.102943 2.028387 -30.15148 16.01025 88.59606 24.02141 -14.02613 -0 0 25.36476 -25.98701 16.16629 14.46625 2.157199 -24.9868 -9.357615 -87.82518 -3.54496 31.39265 0 0 -14.11592 20.74148 7.8063 -13.49533
-1558.042 98.21461 658.6585 -2.862864 7.272293 -168.4131 3.759566 3.354754 2.459126 -0 28.44816 -0 -7.38128 -0.9152788 1.338537 -1.499487 -10.91455 -5.914247 -0 18.28134 -0 16.20697 0.9171789 17.75547 -1.327547 -4.97189 8.558508 1.302301 19.24989 -7.503711 -0.3991533 18.33195 4.433895 2.292889 -19.92724 4.102943 2.028387 -30.15148 16.01025 88.59606 24.02141 -14.02613 -0 0 25.36476 -25.98701 16.16629 14.46625 2.157199 -24.9868 -9.357615 -87.82518 -3.54496 31.39265 0 0 -14.11592 20.74148 7.8063 -13.49533
-1560.189 98.22548 654.2012 -2.819337 7.2892 -168.7565 3.759566 3.354754 2.459126 -0 28.44816 -0 -7.38128 -0.9152788 1.338537 -1.499487 -10.91455 -5.914247 -0 18.28134 -0 16.20697 0.9171789 17.75547 -1.327547 -4.97189 8.558508 1.302301 19.24989 -7.503711 -0.3991533 18.33195 4.433895 2.292889 -19.92724 4.102943 2.028387 -30.15148 16.01025 88.59606 24.02141 -14.02613 -0 0 25.36476 -25.98701 16.16629 14.46625 2.157199 -24.9868 -9.357615 -87.82518 -3.54496 31.39265 0 0 -14.11592 20.74148 7.8063 -13.49533
-1562.309 98.23636 649.7311 -2.775707 7.305849 -169.1 3.759566 3.354754 2.459126 -0 28.44816 -0 -7.38128 -0.9152788 1.338537 -1.499487 -10.91455 -5.914247 -0 18.28134 -0 16.20697 0.9171789 17.75547 -1.327547 -4.97189 8.558508 1.302301 19.24989 -7.503711 -0.3991533 18.33195 4.433895 2.292889 -19.92724 4.102943 2.028387 -30.15148 16.01025 88.59606 24.02141 -14.02613 -0 0 25.36476 -25.98701 16.16629 14.46625 2.157199 -24.9868 -9.357615 -87.82518 -3.54496 31.39265 0 0 -14.11592 20.74148 7.8063 -13.49533
-1564.403 98.24724 645.2485 -2.731976 7.322237 -169.4435 3.759566 3.354754 2.459126 -0 28.44816 -0 -7.38128 -0.9152788 1.338537 -1.499487 -10.91455 -5.914247 -0 18.28134 -0 16.20697 0.9171789 17.75547 -1.327547 -4.97189 8.558508 1.302301 19.24989 -7.503711 -0.3991533 18.33195 4.433895 2.292889 -19.92724 4.102943 2.028387 -30.15148 16.01025 88.59606 24.02141 -14.02613 -0 0 25.36476 -25.98701 16.16629 14.46625 2.157199 -24.9868 -9.357615 -87.82518 -3.54496 31.39265 0 0 -14.11592 20.74148 7.8063 -13.49533
-1566.47 98.25811 640.7536 -2.688145 7.338365 -169.7871 3.759566 3.354754 2.459126 -0 28.44816 -0 -7.38128 -0.9152788 1.338537 -1.499487 -10.91455 -5.914247 -0 18.28134 -0 16.20697 0.9171789 17.75547 -1.327547 -4.97189 8.558508 1.302301 19.24989 -7.503711 -0.3991533 18.33195 4.433895 2.292889 -19.92724 4.102943 2.028387 -30.15148 16.01025 88.59606 24.02141 -14.02613 -0 0 25.36476 -25.98701 16.16629 14.46625 2.157199 -24.9868 -9.357615 -87.82518 -3.54496 31.39265 0 0 -14.11592 20.74148 7.8063 -13.49533
-1568.51 98.26899 636.2464 -2.644215 7.354233 -170.1306 3.759566 3.354754 2.459126 -0 28.44816 -0 -7.38128 -0.9152788 1.338537 -1.499487 -10.91455 -5.914247 -0 18.28134 -0 16.20697 0.9171789 17.75547 -1.327547 -4.97189 8.558508 1.302301 19.24989 -7.503711 -0.3991533 18.33195 4.433895 2.292889 -19.92724 4.102943 2.028387 -30.15148 16.01025 88.59606 24.02141 -14.02613 -0 0 25.36476 -25.98701 16.16629 14.46625 2.157199 -24.9868 -9.357615 -87.82518 -3.54496 31.39265 0 0 -14.11592 20.74148 7.8063 -13.49533
-1570.523 98.27987 631.7271 -2.600189 7.369838 -170.4742 3.759566 3.354754 2.459126 -0 28.44816 -0 -7.38128 -0.9152788 1.338537 -1.499487 -10.91455 -5.914247 -0 18.28134 -0 16.20697 0.9171789 17.75547 -1.327547 -4.97189 8.558508 1.302301 19.24989 -7.503711 -0.3991533 18.33195 4.433895 2.292889 -19.92724 4.102943 2.028387 -30.15148 16.01025 88.59606 24.02141 -14.02613 -0 0 25.36476 -25.98701 16.16629 14.46625 2.157199 -24.9868 -9.357615 -87.82518 -3.54496 31.39265 0 0 -14.11592 20.74148 7.8063 -13.49533
